<svg width="34" height="34" viewBox="0 0 34 34" fill="none" xmlns="http://www.w3.org/2000/svg">
<path d="M6.48229 23.5113L6.85155 24.9103C7.31927 26.7292 8.34089 27.6619 10.3718 27.6619H23.6281C25.6714 27.6619 26.6806 26.7525 27.1606 24.9103L27.5299 23.5113H6.48229ZM6.07611 21.914H27.9484L30.2624 12.9366L29.2531 12.3886L23.5789 16.306C23.1603 16.5859 22.8773 16.481 22.6434 16.1662L17.3015 8.51786L16.7107 8.49454L11.3195 16.2011C11.1103 16.5042 10.8641 16.5976 10.4456 16.3177L4.88218 12.4702L3.70056 12.7617L6.07611 21.914ZM4.15597 15.2684C5.78071 15.2684 7.08541 14.0209 7.08541 12.4702C7.08541 10.9546 5.78071 9.69541 4.15597 9.69541C2.53125 9.69541 1.21423 10.9429 1.21423 12.4702C1.21423 14.0209 2.54355 15.2684 4.15597 15.2684ZM17.0061 10.4183C18.6185 10.4183 19.9355 9.17076 19.9355 7.63177C19.9355 6.1161 18.6185 4.85693 17.0061 4.85693C15.3691 4.85693 14.0644 6.10445 14.0644 7.63177C14.0644 9.17076 15.3814 10.4183 17.0061 10.4183ZM29.8439 15.2684C31.4564 15.2684 32.7857 14.0209 32.7857 12.4702C32.7857 10.9429 31.4687 9.69541 29.8439 9.69541C28.2315 9.69541 26.9145 10.9546 26.9145 12.4702C26.9145 14.0209 28.2315 15.2684 29.8439 15.2684Z" fill="#262626"/>
</svg>
